<svg xmlns="http://www.w3.org/2000/svg" width="10" height="10" enable-background="new 0 0 10 10" viewBox="0 0 10 10"><path d="M9.296,6.899H7.957c0.056-0.058,0.099-0.126,0.127-0.202h0.847c0.077,0,0.139-0.062,0.139-0.139V3.843c0-0.318-0.259-0.577-0.577-0.577H4.214c-0.318,0-0.577,0.259-0.577,0.564L3.536,4.901L2.461,5.218C2.424,5.229,2.393,5.255,2.376,5.289L2.238,5.564c-0.009,0.02-0.015,0.04-0.015,0.062v0.933c0,0.077,0.063,0.139,0.14,0.139h0.504c0.028,0.076,0.071,0.145,0.127,0.202H1.537V4.476c0.394-0.066,0.695-0.407,0.695-0.819c0-0.46-0.374-0.834-0.834-0.834S0.564,3.196,0.564,3.656c0,0.412,0.302,0.753,0.695,0.819v2.424H0.832c-0.077,0-0.139,0.063-0.139,0.14c0,0.076,0.062,0.139,0.139,0.139h8.464c0.077,0,0.14-0.063,0.14-0.139C9.436,6.962,9.373,6.899,9.296,6.899z M0.843,3.656c0-0.307,0.249-0.556,0.556-0.556S1.954,3.35,1.954,3.656S1.705,4.212,1.398,4.212S0.843,3.963,0.843,3.656z M4.67,4.773V3.982h0.671v0.791H4.67z M5.341,5.052V6.42H4.67V5.052H5.341z M8.083,3.982v0.791H7.446V3.982H8.083z M7.169,3.982v0.791H6.533V3.982H7.169z M6.255,4.773H5.619V3.982h0.636V4.773z M3.901,3.982h0.491v0.791H3.827L3.901,3.982z M3.419,6.804c-0.173,0-0.313-0.141-0.313-0.314c0-0.173,0.141-0.313,0.313-0.313s0.313,0.141,0.313,0.313C3.732,6.663,3.592,6.804,3.419,6.804z M3.844,6.899c0.055-0.058,0.098-0.126,0.127-0.202h0.561H5.48h1.5c0.028,0.076,0.071,0.145,0.127,0.202H3.844z M7.532,6.804c-0.173,0-0.313-0.141-0.313-0.314c0-0.173,0.141-0.313,0.313-0.313s0.313,0.141,0.313,0.313C7.846,6.663,7.705,6.804,7.532,6.804z"/></svg>