<svg xmlns="http://www.w3.org/2000/svg" viewBox="0 0 64 64"><path d="M32,2A24.0275,24.0275,0,0,0,8,26C8,44.294,30.44971,61.09766,31.40576,61.8042a.99964.99964,0,0,0,1.18848,0C33.55029,61.09766,56,44.294,56,26A24.0275,24.0275,0,0,0,32,2Zm0,42A18,18,0,1,1,50,26,18.02047,18.02047,0,0,1,32,44Zm7-30H25a3.00883,3.00883,0,0,0-3,3V31a3.00887,3.00887,0,0,0,3,3H39a3.00883,3.00883,0,0,0,3-3V17A3.00879,3.00879,0,0,0,39,14ZM29,30H27a1,1,0,0,1,0-2h2a1,1,0,0,1,0,2Zm8,0H35a1,1,0,0,1,0-2h2a1,1,0,0,1,0,2Zm3-6H24V17a1.003,1.003,0,0,1,1-1H39a1.003,1.003,0,0,1,1,1ZM25,36h5a2.00587,2.00587,0,0,1-2,2H26a2.00591,2.00591,0,0,1-2-2v-.1A4.71186,4.71186,0,0,0,25,36Zm14,0a4.71147,4.71147,0,0,0,1-.1V36a2.00587,2.00587,0,0,1-2,2H36a2.00591,2.00591,0,0,1-2-2Zm7-15v2a1,1,0,0,1-2,0V18.18A3.00048,3.00048,0,0,1,46,21ZM20,18.18V23a1,1,0,0,1-2,0V21A3.00056,3.00056,0,0,1,20,18.18Z" data-name="20-Bus"/></svg>