<svg xmlns="http://www.w3.org/2000/svg" enable-background="new 0 0 461.734 358.47" viewBox="0 0 461.734 358.47"><path d="M4.342,284.831c3.426,3.101,18.229,2.549,25.156,2.104c-0.378-1.079-0.701-2.252-0.957-3.53l-0.018-0.084l-0.008-0.083
			c-2.022-17.871-0.584-28.986,5.914-45.746c1.978-5.009,4.966-8.62,8.301-11.117c-11.698,2.033-36.392,7.348-39.952,16.456
			C-1.913,254.831-0.17,280.748,4.342,284.831z"/><path d="M65.046,254.852c-2.56-1.238-4.771-2.601-6.578-3.882c-4.91-3.487-7.856-6.895-8.896-8.197
			c-2.915-3.761-2.238-9.11,1.465-11.981c1.504-1.166,3.304-1.783,5.203-1.783c2.633,0,5.072,1.187,6.694,3.256l0.177,0.21
			c0.233,0.27,0.569,0.642,1.022,1.101c0.86,0.873,2.277,2.19,4.158,3.518c0.137,0.097,0.276,0.179,0.414,0.272
			c-0.031-6.261-3.254-12.082-9.03-13.301c-7.592-1.602-18.699,2.291-23.381,14.149c-6.336,16.34-7.811,26.937-5.791,44.799
			c2.021,10.111,8.475,13.042,15.105,13.737c0.201,0.652,0.401,1.341,0.6,2.065c1.296,4.737,2.439,10.965,2.434,18.173
			c-0.006,8.108-1.408,17.449-5.658,27.615c-2.134,5.095,0.269,10.954,5.361,13.087c1.262,0.528,2.57,0.778,3.857,0.779
			c3.911,0,7.625-2.309,9.229-6.142c5.356-12.784,7.215-24.897,7.21-35.339c-0.022-11.49-2.196-20.929-4.342-27.47
			c-0.68-2.072-1.356-3.858-1.961-5.32C61.178,274.726,62.966,264.168,65.046,254.852z"/><circle cx="74.582" cy="198.537" r="21.196"/><path d="M67.136 238.728c-1.927-1.364-3.436-2.744-4.426-3.747-.494-.502-.859-.907-1.084-1.167-.112-.131-.191-.222-.231-.274-.019-.024-.03-.037-.035-.041v-.001c-2.204-2.814-6.269-3.32-9.097-1.127-2.838 2.198-3.354 6.281-1.156 9.119.271.336 3.162 4.046 8.518 7.847 5.329 3.778 13.304 7.714 23.366 7.718.024 0 .049 0 .073 0 7.254 0 15.403-2.139 23.828-7.353 3.054-1.885 4.004-5.889 2.119-8.945-1.885-3.054-5.889-4.004-8.944-2.12-6.695 4.112-12.29 5.404-17.076 5.419C76.419 244.063 71.023 241.475 67.136 238.728zM315.751 126.055c-.707 3.185-.73 6.573.06 9.963 2.816 12.1 14.912 19.625 27.01 16.807 12.097-2.816 19.621-14.904 16.811-27.001v-9.416h-43.948l-10.024 9.647H315.751z"/><polygon points="359.631 114.407 359.631 107.037 308.324 101.824 315.944 114.407"/><path d="M417.852 299.043V41.686h-.018c.004-.124.018-.248.018-.372C417.852 18.496 350.031 0 266.369 0S114.887 18.496 114.887 41.313c0 .125.014.248.018.372h-.018v257.357H417.852zM372.977 270.283c-12.598 0-22.811-10.21-22.811-22.809 0-12.598 10.213-22.81 22.811-22.81 12.598 0 22.809 10.212 22.809 22.81C395.785 260.073 385.574 270.283 372.977 270.283zM314.154 176.483c.371-.083.727-.155 1.07-.222.725.288 1.484.581 2.316.88.646.234 1.254.529 1.819.874 4.371-5.275 10.973-8.636 18.358-8.636 7.386 0 13.987 3.361 18.358 8.636.565-.346 1.173-.64 1.819-.874.833-.299 1.596-.593 2.321-.882.19.037.383.076.579.118.852.174 1.785.404 2.709.667-1.369.619-3.007 1.288-4.934 1.98-4.152 1.505-6.301 6.094-4.797 10.248 1.156 3.189 4.134 5.184 7.333 5.262h-5.806c-1.523-1.143-2.73-2.714-3.408-4.58-1.024-2.832-.681-5.826.682-8.271-3.45-4.433-8.82-7.301-14.857-7.301s-11.407 2.869-14.857 7.301c1.362 2.445 1.706 5.439.682 8.271-.678 1.866-1.885 3.437-3.408 4.58h-5.806c3.199-.078 6.177-2.073 7.333-5.262 1.504-4.154-.645-8.743-4.797-10.248-1.928-.692-3.565-1.361-4.936-1.98C312.682 176.831 313.439 176.64 314.154 176.483zM396.016 194.533h-27.638-6.739c.794-.034 1.597-.181 2.385-.467 4.344-1.577 7.791-3.11 10.637-4.754 2.83-1.672 5.146-3.384 7.023-5.976 1.141-1.588 2.058-3.687 2.247-5.993.008-.079.013-.158.019-.237.006-.094.018-.186.021-.281h-.002c.002-.061-.004-.119-.003-.179.001-.069.009-.136.008-.206 0-.003 0-.004 0-.007.001-.142-.012-.281-.018-.422 0-.003 0-.005 0-.007-.088-2.369-.97-4.516-2.023-6.032-.829-1.171-1.706-2.085-2.603-2.85-1.279-1.091-2.6-1.868-3.889-2.569-3.313-1.713-6.751-2.745-9.852-3.498-1.549-.367-2.996-.646-4.294-.843-1.322-.193-2.376-.324-3.667-.334-.29 0-.575.017-.857.047h-38.114c-.28-.03-.564-.046-.852-.046-1.895.023-3.561.286-5.821.711-3.301.667-7.245 1.7-11.041 3.487-1.62.788-3.238 1.692-4.83 3.042-.277.235-.553.479-.828.743-.918.896-1.836 2.002-2.575 3.444-.675 1.302-1.146 2.93-1.222 4.639-.003.042-.006.085-.008.127-.004.121-.023.239-.023.36.003 0 0 0 .003.164.001.057.004.144.007.229l0 0c0 .004.001.007.001.011.006.149.016.323.039.544.001.012.004.023.005.035.203 2.278 1.113 4.35 2.242 5.922 1.877 2.592 4.193 4.304 7.023 5.976 2.846 1.643 6.293 3.177 10.637 4.754.788.286 1.591.433 2.385.467h-6.739-31.022V82.627h119.979V194.533zM159.762 270.283c-12.598 0-22.811-10.21-22.811-22.809 0-12.598 10.213-22.81 22.811-22.81 12.596 0 22.809 10.212 22.809 22.81C182.57 260.073 172.357 270.283 159.762 270.283zM136.721 194.533V82.627h119.979v111.906H136.721zM321.904 284.168h-111.07v-11.9h111.07V284.168zM321.904 258.384h-111.07v-11.9h111.07V258.384zM321.904 232.6h-111.07v-11.9h111.07V232.6zM366.094 36.297c4.746 0 8.594 3.849 8.594 8.596 0 4.746-3.848 8.595-8.594 8.595s-8.596-3.849-8.596-8.595C357.498 40.146 361.348 36.297 366.094 36.297zM191.203 22.579h150.332c2.189 0 3.967 1.776 3.967 3.967v36.691c0 2.19-1.777 3.967-3.967 3.967H191.203c-2.191 0-3.969-1.776-3.969-3.967V26.546C187.234 24.355 189.012 22.579 191.203 22.579zM163.127 36.297c4.744 0 8.594 3.849 8.594 8.596 0 4.746-3.85 8.595-8.594 8.595-4.746 0-8.596-3.849-8.596-8.595C154.531 40.146 158.381 36.297 163.127 36.297zM114.887 310.943v18.843h19.719v24.717c0 2.19 1.775 3.967 3.967 3.967h42.379c2.19 0 3.965-1.776 3.965-3.967v-24.717H347.82v24.717c0 2.19 1.775 3.967 3.965 3.967h42.379c2.191 0 3.969-1.776 3.969-3.967v-24.717h19.719v-18.843H114.887zM74.971 148.636h26.445c2.189 0 3.967-1.776 3.967-3.967v-42.975c0-2.19-1.777-3.966-3.967-3.966H74.971c-2.191 0-3.967 1.775-3.967 3.966v42.975C71.004 146.859 72.779 148.636 74.971 148.636zM457.768 97.729h-26.443c-2.191 0-3.969 1.775-3.969 3.966v42.975c0 2.19 1.777 3.967 3.969 3.967h26.443c2.189 0 3.967-1.776 3.967-3.967v-42.975C461.734 99.504 459.957 97.729 457.768 97.729z"/></svg>